<svg xmlns="http://www.w3.org/2000/svg" viewBox="0 0 253.39 59.56"><defs><style>.cls-1{fill:#6d6f71;}</style></defs><g id="Layer_2" data-name="Layer 2"><g id="Layer_2-2" data-name="Layer 2"><path class="cls-1" d="M83.46,45.51H72.31v3.65H82.93c1.66,0,2.79.29,3.37.86a4.37,4.37,0,0,1,.88,3.17v2.34a4.39,4.39,0,0,1-.88,3.17c-.58.57-1.71.86-3.37.86H72.41c-1.67,0-2.79-.29-3.38-.86a4.43,4.43,0,0,1-.88-3.17v-.47l3.5-.72v2h12V52.47H73.07c-1.66,0-2.77-.29-3.35-.86a4.44,4.44,0,0,1-.87-3.17V46.55a4.44,4.44,0,0,1,.87-3.17c.58-.57,1.69-.86,3.35-.86h9.67a5,5,0,0,1,3.31.83A3.82,3.82,0,0,1,87,46.26v.36l-3.5.82Z"/><path class="cls-1" d="M95.4,59.56v-17h4v17Z"/><path class="cls-1" d="M108,59.56v-17h3.21l8,10.3,7.85-10.3h3.18v17h-3.68V49c0-.2,0-.46,0-.77s.06-.66.11-1c-.22.44-.41.81-.57,1.09a7,7,0,0,1-.43.7l-6.4,8.51h-.79L112.16,49c-.24-.32-.44-.63-.61-.91a7.94,7.94,0,0,1-.41-.83c0,.35.06.68.08,1s0,.57,0,.83V59.56Z"/><path class="cls-1" d="M138.62,59.56v-17h14.59a4.41,4.41,0,0,1,2.92.79,3.2,3.2,0,0,1,.9,2.52v2.08a2.59,2.59,0,0,1-.75,2,3.65,3.65,0,0,1-2.18.91,3.67,3.67,0,0,1,2.27,1,3.14,3.14,0,0,1,.79,2.23v2.17a2.78,2.78,0,0,1-1.24,2.51,6.88,6.88,0,0,1-3.77.83ZM151.55,45.3h-9v4.06h9a2.67,2.67,0,0,0,1.43-.28,1.08,1.08,0,0,0,.4-.95V46.52a1.09,1.09,0,0,0-.4-.94A2.58,2.58,0,0,0,151.55,45.3Zm0,6.86h-9v4.33h9a2.52,2.52,0,0,0,1.53-.33,1.54,1.54,0,0,0,.39-1.2V53.68a1.5,1.5,0,0,0-.39-1.19A2.52,2.52,0,0,0,151.55,52.16Z"/><path class="cls-1" d="M161.56,59.56l9.64-17H175l9.76,17h-4.45l-2-3.73h-10.8l-2,3.73Zm7.62-6.8h7.46L173,45.83Z"/><polygon class="cls-1" points="34.37 19.84 45.82 39.69 22.91 39.69 34.37 19.84"/><polygon class="cls-1" points="34.37 59.53 45.82 39.69 22.91 39.69 34.37 59.53"/><polygon class="cls-1" points="34.37 19.84 45.82 39.69 22.91 39.69 34.37 19.84"/><polygon class="cls-1" points="34.37 59.53 45.82 39.69 22.91 39.69 34.37 59.53"/><polygon class="cls-1" points="34.37 19.84 45.82 39.69 22.91 39.69 34.37 19.84"/><polygon class="cls-1" points="34.37 59.53 45.82 39.69 22.91 39.69 34.37 59.53"/><polygon class="cls-1" points="22.91 39.69 34.37 19.84 11.46 19.84 22.91 39.69"/><polygon class="cls-1" points="11.46 59.53 22.91 39.69 0 39.69 11.46 59.53"/><polygon class="cls-1" points="22.91 0 34.37 19.84 11.46 19.84 22.91 0"/><polygon class="cls-1" points="11.46 19.84 22.91 39.69 0 39.69 11.46 19.84"/><polygon class="cls-1" points="22.91 39.69 34.37 19.84 11.46 19.84 22.91 39.69"/><polygon class="cls-1" points="11.46 59.53 22.91 39.69 0 39.69 11.46 59.53"/><polygon class="cls-1" points="22.91 0 34.37 19.84 11.46 19.84 22.91 0"/><polygon class="cls-1" points="11.46 19.84 22.91 39.69 0 39.69 11.46 19.84"/><polygon class="cls-1" points="34.37 19.84 45.82 39.69 22.91 39.69 34.37 19.84"/><polygon class="cls-1" points="34.37 59.53 45.82 39.69 22.91 39.69 34.37 59.53"/><polygon class="cls-1" points="22.91 39.69 34.37 19.84 11.46 19.84 22.91 39.69"/><polygon class="cls-1" points="11.46 59.53 22.91 39.69 0 39.69 11.46 59.53"/><polygon class="cls-1" points="22.91 0 34.37 19.84 11.46 19.84 22.91 0"/><polygon class="cls-1" points="11.46 19.84 22.91 39.69 0 39.69 11.46 19.84"/><polygon class="cls-1" points="22.91 39.69 34.37 19.84 11.46 19.84 22.91 39.69"/><polygon class="cls-1" points="11.46 59.53 22.91 39.69 0 39.69 11.46 59.53"/><polygon class="cls-1" points="22.91 0 34.37 19.84 11.46 19.84 22.91 0"/><polygon class="cls-1" points="11.46 19.84 22.91 39.69 0 39.69 11.46 19.84"/><polygon class="cls-1" points="101.46 5.77 74.61 5.77 74.61 13.47 104.79 13.47 104.79 34.03 65.51 34.03 68.84 28.26 99.02 28.26 99.02 19.24 68.84 19.24 68.84 0 104.79 0 101.46 5.77"/><polygon class="cls-1" points="224.57 34.02 224.57 0 253.39 0 250.06 5.77 230.34 5.77 230.34 13.47 243.79 13.47 240.46 19.24 230.34 19.24 230.34 28.25 253.39 28.25 250.05 34.02 224.57 34.02"/><polygon class="cls-1" points="189.27 34.02 189.27 0 195.03 0 195.03 28.25 215.63 28.25 212.29 34.02 189.27 34.02"/><polygon class="cls-1" points="135.12 6.38 135.12 35.34 140.89 25.35 140.89 12.15 153.17 12.15 153.17 35.34 158.94 25.35 158.94 12.15 171.22 12.15 171.22 35.34 176.99 25.35 176.99 6.38 135.12 6.38"/><polygon class="cls-1" points="122.84 6.39 117.07 6.39 117.07 35.35 122.84 25.36 119.55 31.05 122.84 25.36 122.84 6.39"/></g></g></svg>