<svg xmlns="http://www.w3.org/2000/svg" viewBox="0 0 253.39 67.34"><defs><style>.cls-1{font-size:33px;font-family:BankGothicBT-Medium, BankGothic Md BT;font-weight:500;}.cls-1,.cls-2{fill:#6d6f71;}</style></defs><g id="Layer_2" data-name="Layer 2"><g id="Layer_2-2" data-name="Layer 2"><text class="cls-1" transform="translate(64.35 59.56)">SIMBA</text><polygon class="cls-2" points="34.37 19.84 45.82 39.69 22.91 39.69 34.37 19.84"/><polygon class="cls-2" points="34.37 59.53 45.82 39.69 22.91 39.69 34.37 59.53"/><polygon class="cls-2" points="34.37 19.84 45.82 39.69 22.91 39.69 34.37 19.84"/><polygon class="cls-2" points="34.37 59.53 45.82 39.69 22.91 39.69 34.37 59.53"/><polygon class="cls-2" points="34.37 19.84 45.82 39.69 22.91 39.69 34.37 19.84"/><polygon class="cls-2" points="34.37 59.53 45.82 39.69 22.91 39.69 34.37 59.53"/><polygon class="cls-2" points="22.91 39.69 34.37 19.84 11.46 19.84 22.91 39.69"/><polygon class="cls-2" points="11.46 59.53 22.91 39.69 0 39.69 11.46 59.53"/><polygon class="cls-2" points="22.91 0 34.37 19.84 11.46 19.84 22.91 0"/><polygon class="cls-2" points="11.46 19.84 22.91 39.69 0 39.69 11.46 19.84"/><polygon class="cls-2" points="22.91 39.69 34.37 19.84 11.46 19.84 22.91 39.69"/><polygon class="cls-2" points="11.46 59.53 22.91 39.69 0 39.69 11.46 59.53"/><polygon class="cls-2" points="22.91 0 34.37 19.84 11.46 19.84 22.91 0"/><polygon class="cls-2" points="11.46 19.84 22.91 39.69 0 39.69 11.46 19.84"/><polygon class="cls-2" points="34.37 19.84 45.82 39.69 22.91 39.69 34.37 19.84"/><polygon class="cls-2" points="34.37 59.53 45.82 39.69 22.91 39.69 34.37 59.53"/><polygon class="cls-2" points="22.91 39.69 34.37 19.84 11.46 19.84 22.91 39.69"/><polygon class="cls-2" points="11.46 59.53 22.91 39.69 0 39.69 11.46 59.53"/><polygon class="cls-2" points="22.91 0 34.37 19.84 11.46 19.84 22.91 0"/><polygon class="cls-2" points="11.46 19.84 22.91 39.69 0 39.69 11.46 19.84"/><polygon class="cls-2" points="22.91 39.69 34.37 19.84 11.46 19.84 22.91 39.69"/><polygon class="cls-2" points="11.46 59.53 22.91 39.69 0 39.69 11.46 59.53"/><polygon class="cls-2" points="22.91 0 34.37 19.84 11.46 19.84 22.91 0"/><polygon class="cls-2" points="11.46 19.84 22.91 39.69 0 39.69 11.46 19.84"/><polygon class="cls-2" points="101.46 5.77 74.61 5.77 74.61 13.47 104.79 13.47 104.79 34.03 65.51 34.03 68.84 28.26 99.02 28.26 99.02 19.24 68.84 19.24 68.84 0 104.79 0 101.46 5.77"/><polygon class="cls-2" points="224.57 34.02 224.57 0 253.39 0 250.06 5.77 230.34 5.77 230.34 13.47 243.79 13.47 240.46 19.24 230.34 19.24 230.34 28.25 253.39 28.25 250.05 34.02 224.57 34.02"/><polygon class="cls-2" points="189.27 34.02 189.27 0 195.03 0 195.03 28.25 215.63 28.25 212.29 34.02 189.27 34.02"/><polygon class="cls-2" points="135.12 6.38 135.12 35.34 140.89 25.35 140.89 12.15 153.17 12.15 153.17 35.34 158.94 25.35 158.94 12.15 171.22 12.15 171.22 35.34 176.99 25.35 176.99 6.38 135.12 6.38"/><polygon class="cls-2" points="122.84 6.39 117.07 6.39 117.07 35.35 122.84 25.36 119.55 31.05 122.84 25.36 122.84 6.39"/></g></g></svg>