<svg xmlns="http://www.w3.org/2000/svg" viewBox="0 0 276.3 67.34"><defs><style>.cls-1{fill:#f95;}.cls-2{fill:#ffb380;}.cls-3,.cls-7{fill:#f60;}.cls-4{fill:#fff;}.cls-5{fill:#6d6f71;}.cls-6,.cls-7{font-size:33px;font-family:BankGothicBT-Medium, BankGothic Md BT;font-weight:500;}.cls-6{fill:#ffd42a;}</style></defs><g id="Layer_2" data-name="Layer 2"><g id="Layer_1-2" data-name="Layer 1"><polygon class="cls-1" points="57.28 19.84 68.74 39.69 45.82 39.69 57.28 19.84"/><polygon class="cls-1" points="57.28 59.53 68.74 39.69 45.82 39.69 57.28 59.53"/><polygon class="cls-1" points="57.28 19.84 68.74 39.69 45.82 39.69 57.28 19.84"/><polygon class="cls-1" points="57.28 59.53 68.74 39.69 45.82 39.69 57.28 59.53"/><polygon class="cls-2" points="57.28 19.84 68.74 39.69 45.82 39.69 57.28 19.84"/><polygon class="cls-2" points="57.28 59.53 68.74 39.69 45.82 39.69 57.28 59.53"/><polygon class="cls-3" points="45.82 39.69 57.28 19.84 34.37 19.84 45.82 39.69"/><polygon class="cls-3" points="34.37 59.53 45.82 39.69 22.91 39.69 34.37 59.53"/><polygon class="cls-3" points="45.82 0 57.28 19.84 34.37 19.84 45.82 0"/><polygon class="cls-3" points="34.37 19.84 45.82 39.69 22.91 39.69 34.37 19.84"/><polygon class="cls-3" points="45.82 39.69 57.28 19.84 34.37 19.84 45.82 39.69"/><polygon class="cls-3" points="34.37 59.53 45.82 39.69 22.91 39.69 34.37 59.53"/><polygon class="cls-3" points="45.82 0 57.28 19.84 34.37 19.84 45.82 0"/><polygon class="cls-3" points="34.37 19.84 45.82 39.69 22.91 39.69 34.37 19.84"/><polygon class="cls-1" points="57.28 19.84 68.74 39.69 45.82 39.69 57.28 19.84"/><polygon class="cls-1" points="57.28 59.53 68.74 39.69 45.82 39.69 57.28 59.53"/><polygon class="cls-4" points="22.91 39.69 34.37 19.84 11.46 19.84 22.91 39.69"/><polygon class="cls-4" points="22.91 0 34.37 19.84 11.46 19.84 22.91 0"/><polygon class="cls-4" points="11.46 19.84 22.91 39.69 0 39.69 11.46 19.84"/><polygon class="cls-4" points="34.37 19.84 45.82 0 22.91 0 34.37 19.84"/><polygon class="cls-4" points="22.91 39.69 34.37 19.84 11.46 19.84 22.91 39.69"/><polygon class="cls-4" points="22.91 0 34.37 19.84 11.46 19.84 22.91 0"/><polygon class="cls-4" points="11.46 19.84 22.91 39.69 0 39.69 11.46 19.84"/><polygon class="cls-4" points="34.37 19.84 45.82 0 22.91 0 34.37 19.84"/><polygon class="cls-4" points="11.46 59.53 22.91 39.69 0 39.69 11.46 59.53"/><polygon class="cls-4" points="57.28 19.84 68.74 0 45.82 0 57.28 19.84"/><polygon class="cls-4" points="11.46 19.84 22.91 0 0 0 11.46 19.84"/><polygon class="cls-4" points="45.82 39.69 57.28 59.53 34.37 59.53 45.82 39.69"/><polygon class="cls-4" points="22.91 39.69 34.37 59.53 11.46 59.53 22.91 39.69"/><polygon class="cls-4" points="11.46 59.53 22.91 39.69 0 39.69 11.46 59.53"/><polygon class="cls-4" points="57.28 19.84 68.74 0 45.82 0 57.28 19.84"/><polygon class="cls-4" points="11.46 19.84 22.91 0 0 0 11.46 19.84"/><polygon class="cls-4" points="45.82 39.69 57.28 59.53 34.37 59.53 45.82 39.69"/><polygon class="cls-4" points="22.91 39.69 34.37 59.53 11.46 59.53 22.91 39.69"/><polygon class="cls-5" points="124.38 5.77 97.53 5.77 97.53 13.47 127.71 13.47 127.71 34.03 88.43 34.03 91.76 28.26 121.93 28.26 121.93 19.24 91.76 19.24 91.76 0 127.71 0 124.38 5.77"/><polygon class="cls-5" points="145.75 6.39 139.98 6.39 139.98 35.35 145.75 25.36 142.47 31.05 145.75 25.36 145.75 6.39"/><polygon class="cls-5" points="212.18 34.02 212.18 0 217.95 0 217.95 28.25 238.54 28.25 235.21 34.02 212.18 34.02"/><polygon class="cls-5" points="247.49 34.02 247.49 0 276.3 0 272.97 5.77 253.26 5.77 253.26 13.47 266.71 13.47 263.38 19.24 253.26 19.24 253.26 28.25 276.3 28.25 272.96 34.02 247.49 34.02"/><line class="cls-5" x1="199.9" y1="25.35" x2="196.61" y2="31.05"/><line class="cls-5" x1="181.85" y1="25.35" x2="178.56" y2="31.05"/><polygon class="cls-5" points="158.03 6.38 158.03 35.34 163.81 25.35 163.81 12.15 176.08 12.15 176.08 35.34 181.85 25.35 181.85 12.15 194.13 12.15 194.13 35.34 199.9 25.35 199.9 6.38 158.03 6.38"/><line class="cls-5" x1="163.8" y1="25.35" x2="160.51" y2="31.05"/><text class="cls-6" transform="translate(87.26 59.56)">SIMBA</text><polygon class="cls-5" points="124.38 5.77 97.53 5.77 97.53 13.47 127.71 13.47 127.71 34.03 88.43 34.03 91.76 28.26 121.93 28.26 121.93 19.24 91.76 19.24 91.76 0 127.71 0 124.38 5.77"/><polygon class="cls-5" points="145.75 6.39 139.98 6.39 139.98 35.35 145.75 25.36 142.47 31.05 145.75 25.36 145.75 6.39"/><polygon class="cls-5" points="212.18 34.02 212.18 0 217.95 0 217.95 28.25 238.54 28.25 235.21 34.02 212.18 34.02"/><polygon class="cls-5" points="247.49 34.02 247.49 0 276.3 0 272.97 5.77 253.26 5.77 253.26 13.47 266.71 13.47 263.38 19.24 253.26 19.24 253.26 28.25 276.3 28.25 272.96 34.02 247.49 34.02"/><line class="cls-5" x1="199.9" y1="25.35" x2="196.61" y2="31.05"/><line class="cls-5" x1="181.85" y1="25.35" x2="178.56" y2="31.05"/><polygon class="cls-5" points="158.03 6.38 158.03 35.34 163.81 25.35 163.81 12.15 176.08 12.15 176.08 35.34 181.85 25.35 181.85 12.15 194.13 12.15 194.13 35.34 199.9 25.35 199.9 6.38 158.03 6.38"/><line class="cls-5" x1="163.8" y1="25.35" x2="160.51" y2="31.05"/><text class="cls-7" transform="translate(87.26 59.56)">SIMBA</text><polygon class="cls-3" points="45.82 39.69 57.28 19.84 34.37 19.84 45.82 39.69"/><polygon class="cls-3" points="34.37 59.53 45.82 39.69 22.91 39.69 34.37 59.53"/><polygon class="cls-3" points="45.82 0 57.28 19.84 34.37 19.84 45.82 0"/><polygon class="cls-3" points="34.37 19.84 45.82 39.69 22.91 39.69 34.37 19.84"/><polygon class="cls-3" points="45.82 39.69 57.28 19.84 34.37 19.84 45.82 39.69"/><polygon class="cls-3" points="34.37 59.53 45.82 39.69 22.91 39.69 34.37 59.53"/><polygon class="cls-3" points="45.82 0 57.28 19.84 34.37 19.84 45.82 0"/><polygon class="cls-3" points="34.37 19.84 45.82 39.69 22.91 39.69 34.37 19.84"/><polygon class="cls-4" points="22.91 39.69 34.37 19.84 11.46 19.84 22.91 39.69"/><polygon class="cls-4" points="22.91 0 34.37 19.84 11.46 19.84 22.91 0"/><polygon class="cls-4" points="11.46 19.84 22.91 39.69 0 39.69 11.46 19.84"/><polygon class="cls-4" points="34.37 19.84 45.82 0 22.91 0 34.37 19.84"/><polygon class="cls-4" points="22.91 39.69 34.37 19.84 11.46 19.84 22.91 39.69"/><polygon class="cls-4" points="22.91 0 34.37 19.84 11.46 19.84 22.91 0"/><polygon class="cls-4" points="11.46 19.84 22.91 39.69 0 39.69 11.46 19.84"/><polygon class="cls-4" points="34.37 19.84 45.82 0 22.91 0 34.37 19.84"/><polygon class="cls-4" points="11.46 59.53 22.91 39.69 0 39.69 11.46 59.53"/><polygon class="cls-4" points="57.28 19.84 68.74 0 45.82 0 57.28 19.84"/><polygon class="cls-4" points="11.46 19.84 22.91 0 0 0 11.46 19.84"/><polygon class="cls-4" points="45.82 39.69 57.28 59.53 34.37 59.53 45.82 39.69"/><polygon class="cls-4" points="22.91 39.69 34.37 59.53 11.46 59.53 22.91 39.69"/><polygon class="cls-4" points="11.46 59.53 22.91 39.69 0 39.69 11.46 59.53"/><polygon class="cls-4" points="57.28 19.84 68.74 0 45.82 0 57.28 19.84"/><polygon class="cls-4" points="11.46 19.84 22.91 0 0 0 11.46 19.84"/><polygon class="cls-4" points="45.82 39.69 57.28 59.53 34.37 59.53 45.82 39.69"/><polygon class="cls-4" points="22.91 39.69 34.37 59.53 11.46 59.53 22.91 39.69"/><polygon class="cls-5" points="124.38 5.77 97.53 5.77 97.53 13.47 127.71 13.47 127.71 34.03 88.43 34.03 91.76 28.26 121.93 28.26 121.93 19.24 91.76 19.24 91.76 0 127.71 0 124.38 5.77"/><polygon class="cls-5" points="145.75 6.39 139.98 6.39 139.98 35.35 145.75 25.36 142.47 31.05 145.75 25.36 145.75 6.39"/><polygon class="cls-5" points="212.18 34.02 212.18 0 217.95 0 217.95 28.25 238.54 28.25 235.21 34.02 212.18 34.02"/><polygon class="cls-5" points="247.49 34.02 247.49 0 276.3 0 272.97 5.77 253.26 5.77 253.26 13.47 266.71 13.47 263.38 19.24 253.26 19.24 253.26 28.25 276.3 28.25 272.96 34.02 247.49 34.02"/><line class="cls-5" x1="199.9" y1="25.35" x2="196.61" y2="31.05"/><line class="cls-5" x1="181.85" y1="25.35" x2="178.56" y2="31.05"/><polygon class="cls-5" points="158.03 6.38 158.03 35.34 163.81 25.35 163.81 12.15 176.08 12.15 176.08 35.34 181.85 25.35 181.85 12.15 194.13 12.15 194.13 35.34 199.9 25.35 199.9 6.38 158.03 6.38"/><line class="cls-5" x1="163.8" y1="25.35" x2="160.51" y2="31.05"/><text class="cls-6" transform="translate(87.26 59.56)">SIMBA</text><polygon class="cls-5" points="124.38 5.77 97.53 5.77 97.53 13.47 127.71 13.47 127.71 34.03 88.43 34.03 91.76 28.26 121.93 28.26 121.93 19.24 91.76 19.24 91.76 0 127.71 0 124.38 5.77"/><polygon class="cls-5" points="145.75 6.39 139.98 6.39 139.98 35.35 145.75 25.36 142.47 31.05 145.75 25.36 145.75 6.39"/><polygon class="cls-5" points="212.18 34.02 212.18 0 217.95 0 217.95 28.25 238.54 28.25 235.21 34.02 212.18 34.02"/><polygon class="cls-5" points="247.49 34.02 247.49 0 276.3 0 272.97 5.77 253.26 5.77 253.26 13.47 266.71 13.47 263.38 19.24 253.26 19.24 253.26 28.25 276.3 28.25 272.96 34.02 247.49 34.02"/><line class="cls-5" x1="199.9" y1="25.35" x2="196.61" y2="31.05"/><line class="cls-5" x1="181.85" y1="25.35" x2="178.56" y2="31.05"/><polygon class="cls-5" points="158.03 6.38 158.03 35.34 163.81 25.35 163.81 12.15 176.08 12.15 176.08 35.34 181.85 25.35 181.85 12.15 194.13 12.15 194.13 35.34 199.9 25.35 199.9 6.38 158.03 6.38"/><line class="cls-5" x1="163.8" y1="25.35" x2="160.51" y2="31.05"/><text class="cls-7" transform="translate(87.26 59.56)">SIMBA</text></g></g></svg>